<?xml version="1.0" encoding="UTF-8" standalone="no"?>
<!DOCTYPE svg PUBLIC "-//W3C//DTD SVG 1.1//EN"
 "http://www.w3.org/Graphics/SVG/1.1/DTD/svg11.dtd">
<!-- Generated by graphviz version 13.0.0 (20250608.1624)
 -->
<!-- Pages: 1 -->
<svg width="849pt" height="284pt"
 viewBox="0.00 0.00 849.00 284.00" xmlns="http://www.w3.org/2000/svg" xmlns:xlink="http://www.w3.org/1999/xlink">
<g id="graph0" class="graph" transform="scale(1 1) rotate(0) translate(4 279.62)">
<polygon fill="#ffffff" stroke="none" points="-4,4 -4,-279.62 844.5,-279.62 844.5,4 -4,4"/>
<!-- X1 -->
<g id="node1" class="node">
<title>X1</title>
<polygon fill="#ffffff" stroke="black" points="38,-244.75 0,-244.75 0,-126 38,-126 38,-244.75"/>
<polygon fill="none" stroke="black" points="0,-221 0,-244.75 38,-244.75 38,-221 0,-221"/>
<text xml:space="preserve" text-anchor="start" x="10.75" y="-227.45" font-family="arial" font-size="14.00">X1</text>
<polygon fill="none" stroke="black" points="0,-197.25 0,-221 38,-221 38,-197.25 0,-197.25"/>
<text xml:space="preserve" text-anchor="start" x="4" y="-203.7" font-family="arial" font-size="14.00">3&#45;pin</text>
<polygon fill="none" stroke="black" points="0,-173.5 0,-197.25 38,-197.25 38,-173.5 0,-173.5"/>
<text xml:space="preserve" text-anchor="start" x="15.25" y="-179.95" font-family="arial" font-size="14.00">1</text>
<polygon fill="none" stroke="black" points="0,-149.75 0,-173.5 38,-173.5 38,-149.75 0,-149.75"/>
<text xml:space="preserve" text-anchor="start" x="15.25" y="-156.2" font-family="arial" font-size="14.00">2</text>
<polygon fill="none" stroke="black" points="0,-126 0,-149.75 38,-149.75 38,-126 0,-126"/>
<text xml:space="preserve" text-anchor="start" x="15.25" y="-132.45" font-family="arial" font-size="14.00">3</text>
</g>
<!-- C1 -->
<g id="node4" class="node">
<title>C1</title>
<polygon fill="none" stroke="black" stroke-dasharray="1,5" points="224.5,-257.62 182,-257.62 182,-113.12 224.5,-113.12 224.5,-257.62"/>
<polygon fill="none" stroke="black" points="182,-233.88 182,-257.62 224.5,-257.62 224.5,-233.88 182,-233.88"/>
<text xml:space="preserve" text-anchor="start" x="194.62" y="-240.32" font-family="arial" font-size="14.00">C1</text>
<polygon fill="none" stroke="black" points="182,-210.12 182,-233.88 224.5,-233.88 224.5,-210.12 182,-210.12"/>
<text xml:space="preserve" text-anchor="start" x="186" y="-216.57" font-family="arial" font-size="14.00">0.1 m</text>
<text xml:space="preserve" text-anchor="start" x="189.79" y="-194.82" font-family="arial" font-size="14.00"> </text>
<polygon fill="#000000" stroke="none" points="182,-188.38 182,-190.38 224.5,-190.38 224.5,-188.38 182,-188.38"/>
<polygon fill="#ff0000" stroke="none" points="182,-186.38 182,-188.38 224.5,-188.38 224.5,-186.38 182,-186.38"/>
<polygon fill="#000000" stroke="none" points="182,-184.38 182,-186.38 224.5,-186.38 224.5,-184.38 182,-184.38"/>
<text xml:space="preserve" text-anchor="start" x="189.79" y="-169.07" font-family="arial" font-size="14.00"> </text>
<polygon fill="#000000" stroke="none" points="182,-162.62 182,-164.62 224.5,-164.62 224.5,-162.62 182,-162.62"/>
<polygon fill="#000000" stroke="none" points="182,-160.62 182,-162.62 224.5,-162.62 224.5,-160.62 182,-160.62"/>
<polygon fill="#000000" stroke="none" points="182,-158.62 182,-160.62 224.5,-160.62 224.5,-158.62 182,-158.62"/>
<text xml:space="preserve" text-anchor="start" x="189.79" y="-143.32" font-family="arial" font-size="14.00"> </text>
<polygon fill="#000000" stroke="none" points="182,-136.88 182,-138.88 224.5,-138.88 224.5,-136.88 182,-136.88"/>
<polygon fill="#0066ff" stroke="none" points="182,-134.88 182,-136.88 224.5,-136.88 224.5,-134.88 182,-134.88"/>
<polygon fill="#000000" stroke="none" points="182,-132.88 182,-134.88 224.5,-134.88 224.5,-132.88 182,-132.88"/>
<text xml:space="preserve" text-anchor="start" x="189.79" y="-117.58" font-family="arial" font-size="14.00"> </text>
</g>
<!-- X1&#45;&#45;C1 -->
<g id="edge1" class="edge">
<title>X1:e&#45;&#45;C1:w</title>
<path fill="none" stroke="#000000" stroke-width="2" d="M38,-183.38C102.25,-183.39 118.24,-185.39 182,-185.38"/>
<path fill="none" stroke="#ff0000" stroke-width="2" d="M38,-185.38C102.01,-185.38 117.99,-187.38 182,-187.38"/>
<path fill="none" stroke="#000000" stroke-width="2" d="M38,-187.37C101.76,-187.36 117.75,-189.36 182,-189.37"/>
</g>
<!-- X1&#45;&#45;C1 -->
<g id="edge5" class="edge">
<title>X1:e&#45;&#45;C1:w</title>
<path fill="none" stroke="#000000" stroke-width="2" d="M38,-159.63C102,-159.62 118,-159.62 182,-159.63"/>
<path fill="none" stroke="#000000" stroke-width="2" d="M38,-161.63C102,-161.62 118,-161.62 182,-161.63"/>
<path fill="none" stroke="#000000" stroke-width="2" d="M38,-163.62C102,-163.62 118,-163.62 182,-163.62"/>
</g>
<!-- X1&#45;&#45;C1 -->
<g id="edge9" class="edge">
<title>X1:e&#45;&#45;C1:w</title>
<path fill="none" stroke="#000000" stroke-width="2" d="M38,-135.88C101.76,-135.89 117.75,-133.89 182,-133.88"/>
<path fill="none" stroke="#0066ff" stroke-width="2" d="M38,-137.88C102.01,-137.88 117.99,-135.88 182,-135.88"/>
<path fill="none" stroke="#000000" stroke-width="2" d="M38,-139.87C102.25,-139.86 118.24,-137.86 182,-137.87"/>
</g>
<!-- X2 -->
<g id="node2" class="node">
<title>X2</title>
<polygon fill="#ffffff" stroke="black" points="840.5,-244.88 802.5,-244.88 802.5,-149.88 840.5,-149.88 840.5,-244.88"/>
<polygon fill="none" stroke="black" points="802.5,-221.12 802.5,-244.88 840.5,-244.88 840.5,-221.12 802.5,-221.12"/>
<text xml:space="preserve" text-anchor="start" x="813.25" y="-227.57" font-family="arial" font-size="14.00">X2</text>
<polygon fill="none" stroke="black" points="802.5,-197.38 802.5,-221.12 840.5,-221.12 840.5,-197.38 802.5,-197.38"/>
<text xml:space="preserve" text-anchor="start" x="806.5" y="-203.82" font-family="arial" font-size="14.00">2&#45;pin</text>
<polygon fill="none" stroke="black" points="802.5,-173.62 802.5,-197.38 840.5,-197.38 840.5,-173.62 802.5,-173.62"/>
<text xml:space="preserve" text-anchor="start" x="817.75" y="-180.07" font-family="arial" font-size="14.00">1</text>
<polygon fill="none" stroke="black" points="802.5,-149.88 802.5,-173.62 840.5,-173.62 840.5,-149.88 802.5,-149.88"/>
<text xml:space="preserve" text-anchor="start" x="817.75" y="-156.32" font-family="arial" font-size="14.00">2</text>
</g>
<!-- X3 -->
<g id="node3" class="node">
<title>X3</title>
<polygon fill="#ffffff" stroke="black" points="840.5,-83 802.5,-83 802.5,-11.75 840.5,-11.75 840.5,-83"/>
<polygon fill="none" stroke="black" points="802.5,-59.25 802.5,-83 840.5,-83 840.5,-59.25 802.5,-59.25"/>
<text xml:space="preserve" text-anchor="start" x="813.25" y="-65.7" font-family="arial" font-size="14.00">X3</text>
<polygon fill="none" stroke="black" points="802.5,-35.5 802.5,-59.25 840.5,-59.25 840.5,-35.5 802.5,-35.5"/>
<text xml:space="preserve" text-anchor="start" x="806.5" y="-41.95" font-family="arial" font-size="14.00">1&#45;pin</text>
<polygon fill="none" stroke="black" points="802.5,-11.75 802.5,-35.5 840.5,-35.5 840.5,-11.75 802.5,-11.75"/>
<text xml:space="preserve" text-anchor="start" x="817.75" y="-18.2" font-family="arial" font-size="14.00">1</text>
</g>
<!-- C2 -->
<g id="node5" class="node">
<title>C2</title>
<polygon fill="none" stroke="black" stroke-dasharray="1,5" points="411,-256.75 368.5,-256.75 368.5,-138 411,-138 411,-256.75"/>
<polygon fill="none" stroke="black" points="368.5,-233 368.5,-256.75 411,-256.75 411,-233 368.5,-233"/>
<text xml:space="preserve" text-anchor="start" x="381.12" y="-239.45" font-family="arial" font-size="14.00">C2</text>
<polygon fill="none" stroke="black" points="368.5,-209.25 368.5,-233 411,-233 411,-209.25 368.5,-209.25"/>
<text xml:space="preserve" text-anchor="start" x="372.5" y="-215.7" font-family="arial" font-size="14.00">0.1 m</text>
<text xml:space="preserve" text-anchor="start" x="376.29" y="-193.95" font-family="arial" font-size="14.00"> </text>
<polygon fill="#000000" stroke="none" points="368.5,-187.5 368.5,-189.5 411,-189.5 411,-187.5 368.5,-187.5"/>
<polygon fill="#ff0000" stroke="none" points="368.5,-185.5 368.5,-187.5 411,-187.5 411,-185.5 368.5,-185.5"/>
<polygon fill="#000000" stroke="none" points="368.5,-183.5 368.5,-185.5 411,-185.5 411,-183.5 368.5,-183.5"/>
<text xml:space="preserve" text-anchor="start" x="376.29" y="-168.2" font-family="arial" font-size="14.00"> </text>
<polygon fill="#000000" stroke="none" points="368.5,-161.75 368.5,-163.75 411,-163.75 411,-161.75 368.5,-161.75"/>
<polygon fill="#000000" stroke="none" points="368.5,-159.75 368.5,-161.75 411,-161.75 411,-159.75 368.5,-159.75"/>
<polygon fill="#000000" stroke="none" points="368.5,-157.75 368.5,-159.75 411,-159.75 411,-157.75 368.5,-157.75"/>
<text xml:space="preserve" text-anchor="start" x="376.29" y="-142.45" font-family="arial" font-size="14.00"> </text>
</g>
<!-- C1&#45;&#45;C2 -->
<g id="edge2" class="edge">
<title>C1:e&#45;&#45;C2:w</title>
<path fill="none" stroke="#000000" stroke-width="2" d="M224.5,-185.38C288.39,-185.38 304.39,-184.5 368.5,-184.5"/>
<path fill="none" stroke="#ff0000" stroke-width="2" d="M224.5,-187.37C288.5,-187.38 304.5,-186.5 368.5,-186.5"/>
<path fill="none" stroke="#000000" stroke-width="2" d="M224.5,-189.37C288.61,-189.37 304.61,-188.5 368.5,-188.5"/>
</g>
<!-- C1&#45;&#45;C2 -->
<g id="edge6" class="edge">
<title>C1:e&#45;&#45;C2:w</title>
<path fill="none" stroke="#000000" stroke-width="2" d="M224.5,-159.63C288.39,-159.63 304.39,-158.75 368.5,-158.75"/>
<path fill="none" stroke="#000000" stroke-width="2" d="M224.5,-161.62C288.5,-161.63 304.5,-160.75 368.5,-160.75"/>
<path fill="none" stroke="#000000" stroke-width="2" d="M224.5,-163.62C288.61,-163.62 304.61,-162.75 368.5,-162.75"/>
</g>
<!-- C3 -->
<g id="node7" class="node">
<title>C3</title>
<polygon fill="none" stroke="black" stroke-dasharray="1,5" points="411,-103.88 368.5,-103.88 368.5,-10.88 411,-10.88 411,-103.88"/>
<polygon fill="none" stroke="black" points="368.5,-80.12 368.5,-103.88 411,-103.88 411,-80.12 368.5,-80.12"/>
<text xml:space="preserve" text-anchor="start" x="381.12" y="-86.58" font-family="arial" font-size="14.00">C3</text>
<polygon fill="none" stroke="black" points="368.5,-56.38 368.5,-80.12 411,-80.12 411,-56.38 368.5,-56.38"/>
<text xml:space="preserve" text-anchor="start" x="372.5" y="-62.83" font-family="arial" font-size="14.00">0.1 m</text>
<text xml:space="preserve" text-anchor="start" x="376.29" y="-41.08" font-family="arial" font-size="14.00"> </text>
<polygon fill="#000000" stroke="none" points="368.5,-34.62 368.5,-36.62 411,-36.62 411,-34.62 368.5,-34.62"/>
<polygon fill="#0066ff" stroke="none" points="368.5,-32.62 368.5,-34.62 411,-34.62 411,-32.62 368.5,-32.62"/>
<polygon fill="#000000" stroke="none" points="368.5,-30.62 368.5,-32.62 411,-32.62 411,-30.62 368.5,-30.62"/>
<text xml:space="preserve" text-anchor="start" x="376.29" y="-15.32" font-family="arial" font-size="14.00"> </text>
</g>
<!-- C1&#45;&#45;C3 -->
<g id="edge10" class="edge">
<title>C1:e&#45;&#45;C3:w</title>
<path fill="none" stroke="#000000" stroke-width="2" d="M224.5,-133.88C301.01,-136.13 288.02,-33.88 368.5,-31.63"/>
<path fill="none" stroke="#0066ff" stroke-width="2" d="M224.5,-135.88C302.99,-135.87 290.01,-33.62 368.5,-33.62"/>
<path fill="none" stroke="#000000" stroke-width="2" d="M224.5,-137.87C304.98,-135.62 291.99,-33.37 368.5,-35.62"/>
</g>
<!-- W1 -->
<g id="node6" class="node">
<title>W1</title>
<polygon fill="#ffffff" stroke="black" stroke-dasharray="5,2" points="653.25,-275.62 560.25,-275.62 560.25,-137.12 653.25,-137.12 653.25,-275.62"/>
<polygon fill="none" stroke="black" points="560.25,-251.88 560.25,-275.62 653.25,-275.62 653.25,-251.88 560.25,-251.88"/>
<text xml:space="preserve" text-anchor="start" x="596.25" y="-258.32" font-family="arial" font-size="14.00">W1</text>
<polygon fill="none" stroke="black" points="560.25,-228.12 560.25,-251.88 596.62,-251.88 596.62,-228.12 560.25,-228.12"/>
<text xml:space="preserve" text-anchor="start" x="571.31" y="-234.57" font-family="arial" font-size="14.00">2x</text>
<polygon fill="none" stroke="black" points="596.62,-228.12 596.62,-251.88 653.25,-251.88 653.25,-228.12 596.62,-228.12"/>
<text xml:space="preserve" text-anchor="start" x="607.69" y="-234.57" font-family="arial" font-size="14.00">0.2 m</text>
<text xml:space="preserve" text-anchor="start" x="574.25" y="-212.82" font-family="arial" font-size="14.00"> </text>
<text xml:space="preserve" text-anchor="start" x="562.25" y="-193.07" font-family="arial" font-size="14.00">X1:1</text>
<text xml:space="preserve" text-anchor="start" x="594" y="-193.07" font-family="arial" font-size="14.00"> &#160;&#160;&#160;&#160;RD &#160;&#160;&#160;</text>
<polygon fill="#000000" stroke="none" points="560.25,-186.62 560.25,-188.62 653.25,-188.62 653.25,-186.62 560.25,-186.62"/>
<polygon fill="#ff0000" stroke="none" points="560.25,-184.62 560.25,-186.62 653.25,-186.62 653.25,-184.62 560.25,-184.62"/>
<polygon fill="#000000" stroke="none" points="560.25,-182.62 560.25,-184.62 653.25,-184.62 653.25,-182.62 560.25,-182.62"/>
<text xml:space="preserve" text-anchor="start" x="562.25" y="-167.32" font-family="arial" font-size="14.00">X1:2</text>
<text xml:space="preserve" text-anchor="start" x="594.75" y="-167.32" font-family="arial" font-size="14.00"> &#160;&#160;&#160;&#160;BK &#160;&#160;&#160;</text>
<polygon fill="#000000" stroke="none" points="560.25,-160.88 560.25,-162.88 653.25,-162.88 653.25,-160.88 560.25,-160.88"/>
<polygon fill="#000000" stroke="none" points="560.25,-158.88 560.25,-160.88 653.25,-160.88 653.25,-158.88 560.25,-158.88"/>
<polygon fill="#000000" stroke="none" points="560.25,-156.88 560.25,-158.88 653.25,-158.88 653.25,-156.88 560.25,-156.88"/>
<text xml:space="preserve" text-anchor="start" x="574.25" y="-141.57" font-family="arial" font-size="14.00"> </text>
</g>
<!-- C2&#45;&#45;W1 -->
<g id="edge3" class="edge">
<title>C2:e&#45;&#45;W1:w</title>
<path fill="none" stroke="#000000" stroke-width="2" d="M411,-184.5C476.78,-184.5 493.25,-183.63 559.25,-183.63"/>
<path fill="none" stroke="#ff0000" stroke-width="2" d="M411,-186.5C476.89,-186.5 493.36,-185.62 559.25,-185.63"/>
<path fill="none" stroke="#000000" stroke-width="2" d="M411,-188.5C477,-188.5 493.47,-187.62 559.25,-187.62"/>
</g>
<!-- C2&#45;&#45;W1 -->
<g id="edge7" class="edge">
<title>C2:e&#45;&#45;W1:w</title>
<path fill="none" stroke="#000000" stroke-width="2" d="M411,-158.75C476.78,-158.75 493.25,-157.88 559.25,-157.88"/>
<path fill="none" stroke="#000000" stroke-width="2" d="M411,-160.75C476.89,-160.75 493.36,-159.88 559.25,-159.88"/>
<path fill="none" stroke="#000000" stroke-width="2" d="M411,-162.75C477,-162.75 493.47,-161.87 559.25,-161.87"/>
</g>
<!-- W1&#45;&#45;X2 -->
<g id="edge4" class="edge">
<title>W1:e&#45;&#45;X2:w</title>
<path fill="none" stroke="#000000" stroke-width="2" d="M654.25,-183.63C720.12,-183.63 736.6,-183.5 802.5,-183.5"/>
<path fill="none" stroke="#ff0000" stroke-width="2" d="M654.25,-185.62C720.14,-185.63 736.61,-185.5 802.5,-185.5"/>
<path fill="none" stroke="#000000" stroke-width="2" d="M654.25,-187.62C720.15,-187.62 736.63,-187.5 802.5,-187.5"/>
</g>
<!-- W1&#45;&#45;X2 -->
<g id="edge8" class="edge">
<title>W1:e&#45;&#45;X2:w</title>
<path fill="none" stroke="#000000" stroke-width="2" d="M654.25,-157.88C720.37,-157.89 736.83,-159.76 802.5,-159.75"/>
<path fill="none" stroke="#000000" stroke-width="2" d="M654.25,-159.88C720.14,-159.88 736.61,-161.75 802.5,-161.75"/>
<path fill="none" stroke="#000000" stroke-width="2" d="M654.25,-161.87C719.92,-161.86 736.38,-163.74 802.5,-163.75"/>
</g>
<!-- W2 -->
<g id="node8" class="node">
<title>W2</title>
<polygon fill="#ffffff" stroke="black" points="658.5,-112.75 555,-112.75 555,0 658.5,0 658.5,-112.75"/>
<polygon fill="none" stroke="black" points="555,-89 555,-112.75 658.5,-112.75 658.5,-89 555,-89"/>
<text xml:space="preserve" text-anchor="start" x="596.25" y="-95.45" font-family="arial" font-size="14.00">W2</text>
<polygon fill="none" stroke="black" points="555,-65.25 555,-89 596.62,-89 596.62,-65.25 555,-65.25"/>
<text xml:space="preserve" text-anchor="start" x="568.69" y="-71.7" font-family="arial" font-size="14.00">1x</text>
<polygon fill="none" stroke="black" points="596.62,-65.25 596.62,-89 658.5,-89 658.5,-65.25 596.62,-65.25"/>
<text xml:space="preserve" text-anchor="start" x="610.31" y="-71.7" font-family="arial" font-size="14.00">0.2 m</text>
<text xml:space="preserve" text-anchor="start" x="569" y="-49.95" font-family="arial" font-size="14.00"> </text>
<text xml:space="preserve" text-anchor="start" x="557" y="-30.2" font-family="arial" font-size="14.00">X1:3</text>
<text xml:space="preserve" text-anchor="start" x="588.75" y="-30.2" font-family="arial" font-size="14.00"> &#160;&#160;&#160;&#160;1:BU &#160;&#160;&#160;</text>
<polygon fill="#000000" stroke="none" points="555,-23.75 555,-25.75 658.5,-25.75 658.5,-23.75 555,-23.75"/>
<polygon fill="#0066ff" stroke="none" points="555,-21.75 555,-23.75 658.5,-23.75 658.5,-21.75 555,-21.75"/>
<polygon fill="#000000" stroke="none" points="555,-19.75 555,-21.75 658.5,-21.75 658.5,-19.75 555,-19.75"/>
<text xml:space="preserve" text-anchor="start" x="569" y="-4.45" font-family="arial" font-size="14.00"> </text>
</g>
<!-- C3&#45;&#45;W2 -->
<g id="edge11" class="edge">
<title>C3:e&#45;&#45;W2:w</title>
<path fill="none" stroke="#000000" stroke-width="2" d="M411,-31.63C474.04,-31.98 489.68,-21.11 555,-20.75"/>
<path fill="none" stroke="#0066ff" stroke-width="2" d="M411,-33.62C475.18,-33.62 490.82,-22.75 555,-22.75"/>
<path fill="none" stroke="#000000" stroke-width="2" d="M411,-35.62C476.32,-35.27 491.96,-24.39 555,-24.75"/>
</g>
<!-- W2&#45;&#45;X3 -->
<g id="edge12" class="edge">
<title>W2:e&#45;&#45;X3:w</title>
<path fill="none" stroke="#000000" stroke-width="2" d="M658.5,-20.75C722.61,-20.75 738.61,-21.63 802.5,-21.63"/>
<path fill="none" stroke="#0066ff" stroke-width="2" d="M658.5,-22.75C722.5,-22.75 738.5,-23.63 802.5,-23.62"/>
<path fill="none" stroke="#000000" stroke-width="2" d="M658.5,-24.75C722.39,-24.75 738.39,-25.62 802.5,-25.62"/>
</g>
</g>
</svg>
